<svg xmlns="http://www.w3.org/2000/svg" width="39" height="34" viewBox="0 0 39 34">
  <metadata><?xpacket begin="﻿" id="W5M0MpCehiHzreSzNTczkc9d"?>
<x:xmpmeta xmlns:x="adobe:ns:meta/" x:xmptk="Adobe XMP Core 5.6-c142 79.160924, 2017/07/13-01:06:39        ">
   <rdf:RDF xmlns:rdf="http://www.w3.org/1999/02/22-rdf-syntax-ns#">
      <rdf:Description rdf:about=""/>
   </rdf:RDF>
</x:xmpmeta>
                                                                                                    
                                                                                                    
                                                                                                    
                                                                                                    
                                                                                                    
                                                                                                    
                                                                                                    
                                                                                                    
                                                                                                    
                                                                                                    
                                                                                                    
                                                                                                    
                                                                                                    
                                                                                                    
                                                                                                    
                                                                                                    
                                                                                                    
                                                                                                    
                                                                                                    
                                                                                                    
                           
<?xpacket end="w"?></metadata>
<defs>
    <style>
      .cls-1 {
        fill: #fd0838;
        fill-rule: evenodd;
      }
    </style>
  </defs>
  <path class="cls-1" d="M527.063,6046.89a2.96,2.96,0,0,0-2.967-2.95h-3.7v-2.2a0.745,0.745,0,0,0-1.489,0v2.2H501.886v-2.2a0.745,0.745,0,0,0-1.489,0v2.2h-3.7a2.96,2.96,0,0,0-2.967,2.95v24.27a2.96,2.96,0,0,0,2.967,2.95h27.4a2.96,2.96,0,0,0,2.967-2.95v-24.27Zm-1.49,24.27a1.475,1.475,0,0,1-1.477,1.47H496.7a1.475,1.475,0,0,1-1.477-1.47v-1.46h30.351v1.46Zm0-2.94H495.222v-18.38h30.351v18.38Zm0-19.86H495.222v-1.47a1.475,1.475,0,0,1,1.477-1.47h27.4a1.475,1.475,0,0,1,1.477,1.47v1.47Zm3.746,3.9a0.675,0.675,0,0,1-.68-0.67v-4.24a0.681,0.681,0,0,1,1.361,0v4.24A0.676,0.676,0,0,1,529.319,6052.26ZM492.893,6075a0.663,0.663,0,0,1-.4-0.13,4.137,4.137,0,0,1-1.494-2.82,0.681,0.681,0,0,1,1.357-.11,2.811,2.811,0,0,0,.935,1.84,0.667,0.667,0,0,1,.153.94A0.689,0.689,0,0,1,492.893,6075Zm11.21-19.57H500.73a0.675,0.675,0,1,1,0-1.35H504.1A0.675,0.675,0,1,1,504.1,6055.43Zm0,4.37H500.73a0.675,0.675,0,1,1,0-1.35H504.1A0.675,0.675,0,1,1,504.1,6059.8Zm0,4.37H500.73a0.675,0.675,0,1,1,0-1.35H504.1A0.675,0.675,0,1,1,504.1,6064.17Zm8.4-8.74h-3.373a0.675,0.675,0,1,1,0-1.35H512.5A0.675,0.675,0,1,1,512.5,6055.43Zm0,4.37h-3.373a0.675,0.675,0,1,1,0-1.35H512.5A0.675,0.675,0,1,1,512.5,6059.8Zm0,4.37h-3.373a0.675,0.675,0,1,1,0-1.35H512.5A0.675,0.675,0,1,1,512.5,6064.17Zm8.114-8.74H517.24a0.675,0.675,0,1,1,0-1.35h3.373A0.675,0.675,0,1,1,520.613,6055.43Zm0,4.37H517.24a0.675,0.675,0,1,1,0-1.35h3.373A0.675,0.675,0,1,1,520.613,6059.8Z" transform="translate(-491 -6041)"/>
</svg>
