<svg xmlns="http://www.w3.org/2000/svg" width="72" height="72" viewBox="0 0 72 72">
  <metadata><?xpacket begin="﻿" id="W5M0MpCehiHzreSzNTczkc9d"?>
<x:xmpmeta xmlns:x="adobe:ns:meta/" x:xmptk="Adobe XMP Core 5.6-c142 79.160924, 2017/07/13-01:06:39        ">
   <rdf:RDF xmlns:rdf="http://www.w3.org/1999/02/22-rdf-syntax-ns#">
      <rdf:Description rdf:about=""/>
   </rdf:RDF>
</x:xmpmeta>
                                                                                                    
                                                                                                    
                                                                                                    
                                                                                                    
                                                                                                    
                                                                                                    
                                                                                                    
                                                                                                    
                                                                                                    
                                                                                                    
                                                                                                    
                                                                                                    
                                                                                                    
                                                                                                    
                                                                                                    
                                                                                                    
                                                                                                    
                                                                                                    
                                                                                                    
                                                                                                    
                           
<?xpacket end="w"?></metadata>
<defs>
    <style>
      .cls-1 {
        fill: #fd0838;
        fill-rule: evenodd;
      }
    </style>
  </defs>
  <path class="cls-1" d="M447,1274.89c0.184-1.34.309-2.69,0.56-4.02a35.432,35.432,0,0,1,18.468-25.55,33.148,33.148,0,0,1,19.843-4.13c14.434,1.52,24.679,8.97,30.446,22.34a33.641,33.641,0,0,1,2.34,18.11,35.39,35.39,0,0,1-11.729,22.17,34.8,34.8,0,0,1-18.616,8.7,35.179,35.179,0,0,1-24.283-5.06,1.4,1.4,0,0,0-1.473-.11c-4.2,1.78-8.41,3.52-12.619,5.28-0.32.13-.646,0.25-0.969,0.38h-0.421a2.213,2.213,0,0,1-1.547-1.41v-0.7c1.892-4.53,3.774-9.06,5.686-13.57a1.2,1.2,0,0,0-.1-1.28,33.74,33.74,0,0,1-4.8-11.74c-0.351-1.76-.529-3.55-0.786-5.33v-4.08Zm5.006,33.08c0.306-.13.473-0.19,0.636-0.26,3.225-1.38,6.455-2.74,9.671-4.14a2.367,2.367,0,0,1,2.333.17c0.379,0.23.745,0.48,1.124,0.72a31.54,31.54,0,0,0,25.534,3.95,32.513,32.513,0,0,0-16.374-62.93,32.513,32.513,0,0,0-24.079,36.29,30.84,30.84,0,0,0,5.28,13.32,2.353,2.353,0,0,1,.239,2.5c-1.158,2.65-2.258,5.34-3.38,8.01C452.677,1306.35,452.369,1307.09,452.005,1307.97Zm31.114-49.82a10.911,10.911,0,0,1,2.29,21.61,0.676,0.676,0,0,0-.678.81q0.036,2.745,0,5.49a1.739,1.739,0,0,1-1.36,1.74,1.7,1.7,0,0,1-1.911-.98,2.584,2.584,0,0,1-.175-1.02q-0.022-3.585-.011-7.17a1.815,1.815,0,0,1,1.982-2.08,7.452,7.452,0,1,0-1.832-14.73,7.548,7.548,0,0,0-5.859,6.8,3.553,3.553,0,0,1-.152.96,1.744,1.744,0,0,1-1.984,1.08,1.8,1.8,0,0,1-1.351-1.83,10.745,10.745,0,0,1,5.847-9.44A10.113,10.113,0,0,1,483.119,1258.15Zm-0.275,37.83a1.9,1.9,0,0,1,.024-3.79A1.9,1.9,0,1,1,482.844,1295.98Z" transform="translate(-447 -1241)"/>
</svg>
