<svg xmlns="http://www.w3.org/2000/svg" width="76" height="76" viewBox="0 0 76 76">
  <metadata><?xpacket begin="﻿" id="W5M0MpCehiHzreSzNTczkc9d"?>
<x:xmpmeta xmlns:x="adobe:ns:meta/" x:xmptk="Adobe XMP Core 5.6-c142 79.160924, 2017/07/13-01:06:39        ">
   <rdf:RDF xmlns:rdf="http://www.w3.org/1999/02/22-rdf-syntax-ns#">
      <rdf:Description rdf:about=""/>
   </rdf:RDF>
</x:xmpmeta>
                                                                                                    
                                                                                                    
                                                                                                    
                                                                                                    
                                                                                                    
                                                                                                    
                                                                                                    
                                                                                                    
                                                                                                    
                                                                                                    
                                                                                                    
                                                                                                    
                                                                                                    
                                                                                                    
                                                                                                    
                                                                                                    
                                                                                                    
                                                                                                    
                                                                                                    
                                                                                                    
                           
<?xpacket end="w"?></metadata>
<defs>
    <style>
      .cls-1 {
        fill: #fd0838;
        fill-rule: evenodd;
      }
    </style>
  </defs>
  <path class="cls-1" d="M811.707,1240a8.293,8.293,0,0,0-7.287,12.25l-13.582,13.58a10.973,10.973,0,0,0-13.534-.01l-10.6-10.59a5.415,5.415,0,0,0,.789-2.8,5.587,5.587,0,1,0-2.739,4.75l10.6,10.6a10.975,10.975,0,0,0,0,13.53l-17.5,17.51a8.162,8.162,0,1,0,1.727,2.17l17.724-17.73a10.878,10.878,0,0,0,5.39,2.24v14.04a8.29,8.29,0,1,0,2.76,0V1285.5a10.877,10.877,0,0,0,5.391-2.24l10.594,10.6a5.6,5.6,0,1,0,1.957-1.95l-10.6-10.6a10.964,10.964,0,0,0,0-13.53l13.352-13.35a8.288,8.288,0,1,0,5.56-14.43h0Zm-52.5,12.43a2.763,2.763,0,1,1,2.758,2.77,2.758,2.758,0,0,1-2.758-2.77h0Zm-6.909,58.04a5.53,5.53,0,1,1,5.525-5.52,5.529,5.529,0,0,1-5.525,5.52h0Zm37.3-2.76a5.526,5.526,0,1,1-5.526-5.53,5.523,5.523,0,0,1,5.526,5.53h0Zm-5.526-24.87a8.3,8.3,0,1,1,8.293-8.29,8.305,8.305,0,0,1-8.293,8.29h0Zm24.878,13.82a2.767,2.767,0,1,1-2.767-2.77,2.76,2.76,0,0,1,2.767,2.77h0Zm2.758-42.84a5.525,5.525,0,1,1,5.526-5.53,5.532,5.532,0,0,1-5.526,5.53h0Zm0,0" transform="translate(-744 -1240)"/>
</svg>
