<svg xmlns="http://www.w3.org/2000/svg" width="73" height="71" viewBox="0 0 73 71">
  <metadata><?xpacket begin="﻿" id="W5M0MpCehiHzreSzNTczkc9d"?>
<x:xmpmeta xmlns:x="adobe:ns:meta/" x:xmptk="Adobe XMP Core 5.6-c142 79.160924, 2017/07/13-01:06:39        ">
   <rdf:RDF xmlns:rdf="http://www.w3.org/1999/02/22-rdf-syntax-ns#">
      <rdf:Description rdf:about=""/>
   </rdf:RDF>
</x:xmpmeta>
                                                                                                    
                                                                                                    
                                                                                                    
                                                                                                    
                                                                                                    
                                                                                                    
                                                                                                    
                                                                                                    
                                                                                                    
                                                                                                    
                                                                                                    
                                                                                                    
                                                                                                    
                                                                                                    
                                                                                                    
                                                                                                    
                                                                                                    
                                                                                                    
                                                                                                    
                                                                                                    
                           
<?xpacket end="w"?></metadata>
<defs>
    <style>
      .cls-1 {
        fill: #fd0838;
        fill-rule: evenodd;
      }
    </style>
  </defs>
  <path class="cls-1" d="M1085.56,1246.34v28.9a1.279,1.279,0,0,0,.4.94l24.4,24.21a1.386,1.386,0,0,0,1.1.38,1.407,1.407,0,0,0,.92-0.54,34.613,34.613,0,0,0,6.62-20.37,34.971,34.971,0,0,0-31.98-34.86h0A1.351,1.351,0,0,0,1085.56,1246.34Zm2.67,1.49,0.25,0.03a32.671,32.671,0,0,1,19.91,10.79,32.271,32.271,0,0,1,2.87,38.51l-0.15.23-22.88-22.7v-26.86Zm-9.28-1.42a1.424,1.424,0,0,0-.88-0.31h-0.09a35.036,35.036,0,1,0,27.64,60.22,1.327,1.327,0,0,0,.02-1.91l-25.65-25.43a1.833,1.833,0,0,1-.55-1.3v-30.25A1.405,1.405,0,0,0,1078.95,1246.41Zm23.81,58.91-0.18.15a32.643,32.643,0,0,1-53.91-24.49,32.279,32.279,0,0,1,7.92-21.23,32.671,32.671,0,0,1,19.91-10.79l0.26-.03v28.73a4.446,4.446,0,0,0,1.33,3.19Z" transform="translate(-1046 -1245)"/>
</svg>
