<svg xmlns="http://www.w3.org/2000/svg" width="74" height="68" viewBox="0 0 74 68">
  <metadata><?xpacket begin="﻿" id="W5M0MpCehiHzreSzNTczkc9d"?>
<x:xmpmeta xmlns:x="adobe:ns:meta/" x:xmptk="Adobe XMP Core 5.6-c142 79.160924, 2017/07/13-01:06:39        ">
   <rdf:RDF xmlns:rdf="http://www.w3.org/1999/02/22-rdf-syntax-ns#">
      <rdf:Description rdf:about=""/>
   </rdf:RDF>
</x:xmpmeta>
                                                                                                    
                                                                                                    
                                                                                                    
                                                                                                    
                                                                                                    
                                                                                                    
                                                                                                    
                                                                                                    
                                                                                                    
                                                                                                    
                                                                                                    
                                                                                                    
                                                                                                    
                                                                                                    
                                                                                                    
                                                                                                    
                                                                                                    
                                                                                                    
                                                                                                    
                                                                                                    
                           
<?xpacket end="w"?></metadata>
<defs>
    <style>
      .cls-1 {
        fill: #fd0838;
        fill-rule: evenodd;
      }
    </style>
  </defs>
  <path class="cls-1" d="M1394.68,1312.25v-43.81a0.952,0.952,0,0,1,.96-0.95h6.82a0.952,0.952,0,0,1,.96.95v43.81h-8.74Zm-22.05,0v-23.96a0.952,0.952,0,0,1,.96-0.95h6.82a0.95,0.95,0,0,1,.95.95v23.96h-8.73Zm-22.06,0v-12.41a0.958,0.958,0,0,1,.96-0.95h6.82a0.958,0.958,0,0,1,.96.95v12.41h-8.74Zm62.04,0h-6.41v-43.81a3.726,3.726,0,0,0-3.74-3.7h-6.82a3.726,3.726,0,0,0-3.74,3.7v43.81h-7.75v-23.96a3.726,3.726,0,0,0-3.74-3.7h-6.82a3.728,3.728,0,0,0-3.75,3.7v23.96h-7.74v-12.41a3.728,3.728,0,0,0-3.75-3.7h-6.82a3.726,3.726,0,0,0-3.74,3.7v12.41h-6.4a1.375,1.375,0,1,0,0,2.75h71.22a1.375,1.375,0,1,0,0-2.75h0Zm-59.76-26.95a1.385,1.385,0,0,0,.98-0.4l24.03-23.76,5.19,5.13a1.419,1.419,0,0,0,1.97,0l14.74-14.58v4.66a1.39,1.39,0,0,0,2.78,0v-7.91a1.36,1.36,0,0,0-.4-1.04,1.39,1.39,0,0,0-1.06-.4h-8.49a1.375,1.375,0,1,0,0,2.75h5.2l-13.75,13.6-5.19-5.13a1.4,1.4,0,0,0-.99-0.4,1.376,1.376,0,0,0-.98.4l-25.02,24.73a1.376,1.376,0,0,0,0,1.95,1.408,1.408,0,0,0,.99.4h0Z" transform="translate(-1340 -1247)"/>
</svg>
