<svg xmlns="http://www.w3.org/2000/svg" width="46" height="33" viewBox="0 0 46 33">
  <metadata><?xpacket begin="﻿" id="W5M0MpCehiHzreSzNTczkc9d"?>
<x:xmpmeta xmlns:x="adobe:ns:meta/" x:xmptk="Adobe XMP Core 5.6-c142 79.160924, 2017/07/13-01:06:39        ">
   <rdf:RDF xmlns:rdf="http://www.w3.org/1999/02/22-rdf-syntax-ns#">
      <rdf:Description rdf:about=""/>
   </rdf:RDF>
</x:xmpmeta>
                                                                                                    
                                                                                                    
                                                                                                    
                                                                                                    
                                                                                                    
                                                                                                    
                                                                                                    
                                                                                                    
                                                                                                    
                                                                                                    
                                                                                                    
                                                                                                    
                                                                                                    
                                                                                                    
                                                                                                    
                                                                                                    
                                                                                                    
                                                                                                    
                                                                                                    
                                                                                                    
                           
<?xpacket end="w"?></metadata>
<defs>
    <style>
      .cls-1 {
        fill: #fff;
        fill-rule: evenodd;
      }
    </style>
  </defs>
  <path class="cls-1" d="M556.9,3362H531.1a10.1,10.1,0,0,1-10.1-10.07v-12.86A10.1,10.1,0,0,1,531.1,3329h25.8a10.1,10.1,0,0,1,10.1,10.07v12.86A10.1,10.1,0,0,1,556.9,3362Zm-25.8-31.14a8.23,8.23,0,0,0-8.236,8.21v12.86a8.23,8.23,0,0,0,8.236,8.21h25.8a8.23,8.23,0,0,0,8.236-8.21v-12.86a8.23,8.23,0,0,0-8.236-8.21H531.1Zm7.326,21.98a1.376,1.376,0,0,1-.755-0.22,1.394,1.394,0,0,1-.66-1.19v-11.84a1.419,1.419,0,0,1,2.055-1.26l12.07,6.1a1.4,1.4,0,0,1,.775,1.28,1.389,1.389,0,0,1-.806,1.25l-12.069,5.74A1.322,1.322,0,0,1,538.424,3352.84Zm0.447-12.53v10.41l10.612-5.04Zm11.431,4.98h0Z" transform="translate(-521 -3329)"/>
</svg>
