<svg xmlns="http://www.w3.org/2000/svg" width="48" height="48" viewBox="0 0 48 48">
  <metadata><?xpacket begin="﻿" id="W5M0MpCehiHzreSzNTczkc9d"?>
<x:xmpmeta xmlns:x="adobe:ns:meta/" x:xmptk="Adobe XMP Core 5.6-c142 79.160924, 2017/07/13-01:06:39        ">
   <rdf:RDF xmlns:rdf="http://www.w3.org/1999/02/22-rdf-syntax-ns#">
      <rdf:Description rdf:about=""/>
   </rdf:RDF>
</x:xmpmeta>
                                                                                                    
                                                                                                    
                                                                                                    
                                                                                                    
                                                                                                    
                                                                                                    
                                                                                                    
                                                                                                    
                                                                                                    
                                                                                                    
                                                                                                    
                                                                                                    
                                                                                                    
                                                                                                    
                                                                                                    
                                                                                                    
                                                                                                    
                                                                                                    
                                                                                                    
                                                                                                    
                           
<?xpacket end="w"?></metadata>
<defs>
    <style>
      .cls-1 {
        fill: #fff;
        fill-rule: evenodd;
      }
    </style>
  </defs>
  <path class="cls-1" d="M920.992,3341.6H918.2v-5.01a2.188,2.188,0,0,0-2.183-2.19H915V3320H883v1.6h-2.4v1.6h-2.4v5.6h-1.011a2.187,2.187,0,0,0-2.188,2.18v34.95h0a2.051,2.051,0,0,0,2.047,2.07h35.808a2.041,2.041,0,0,0,1.961-1.45l8.18-22.43v-0.14a2.143,2.143,0,0,0-2.008-2.38h0Zm-4.976-5.6a0.588,0.588,0,0,1,.586.59v5.01H915V3336h1.016Zm-2.618-14.4v20H885.184a1.959,1.959,0,0,0-.539.08H884.6V3321.6h28.8Zm-30.4,1.6v20.47l-0.051.13-0.75,2.06V3323.2H883Zm-3.2,1.6h0.8v25.45l-0.8,2.19V3324.8Zm-3.2,6.18a0.582,0.582,0,0,1,.586-0.58H878.2v26.35l-1.6,4.37v-30.14Zm36.691,35.09a0.453,0.453,0,0,1-.434.33H877.051a0.426,0.426,0,0,1-.356-0.18,0.432,0.432,0,0,1-.1-0.33l1.6-4.39,2.4-6.58,2.4-6.58h0l1.547-4.24,0.055-.15,0.125-.35,0.023-.07a0.452,0.452,0,0,1,.434-0.33h35.808a0.623,0.623,0,0,1,.4.66Zm0,0M889.4,3333.6h19.2a0.8,0.8,0,0,0,0-1.6H889.4a0.8,0.8,0,0,0,0,1.6h0Zm0,0,0-5.6h8a0.8,0.8,0,1,0,0-1.6h-8a0.8,0.8,0,0,0,0,1.6h0Zm0,0,0,11.2h19.2a0.8,0.8,0,0,0,0-1.6H889.4a0.8,0.8,0,0,0,0,1.6h0Zm0,0" transform="translate(-875 -3320)"/>
</svg>
