<svg xmlns="http://www.w3.org/2000/svg" width="47" height="47" viewBox="0 0 47 47">
  <metadata><?xpacket begin="﻿" id="W5M0MpCehiHzreSzNTczkc9d"?>
<x:xmpmeta xmlns:x="adobe:ns:meta/" x:xmptk="Adobe XMP Core 5.6-c142 79.160924, 2017/07/13-01:06:39        ">
   <rdf:RDF xmlns:rdf="http://www.w3.org/1999/02/22-rdf-syntax-ns#">
      <rdf:Description rdf:about=""/>
   </rdf:RDF>
</x:xmpmeta>
                                                                                                    
                                                                                                    
                                                                                                    
                                                                                                    
                                                                                                    
                                                                                                    
                                                                                                    
                                                                                                    
                                                                                                    
                                                                                                    
                                                                                                    
                                                                                                    
                                                                                                    
                                                                                                    
                                                                                                    
                                                                                                    
                                                                                                    
                                                                                                    
                                                                                                    
                                                                                                    
                           
<?xpacket end="w"?></metadata>
<defs>
    <style>
      .cls-1 {
        fill: #fff;
        fill-rule: evenodd;
      }
    </style>
  </defs>
  <path class="cls-1" d="M1257.08,3320h-39.16a3.926,3.926,0,0,0-3.92,3.92v27.41a3.926,3.926,0,0,0,3.92,3.92h13.16l-1.28,7.05h-3.08a2.35,2.35,0,1,0,0,4.7h21.56a2.35,2.35,0,0,0,0-4.7h-3.08l-1.28-7.05h13.16a3.926,3.926,0,0,0,3.92-3.92v-27.41A3.926,3.926,0,0,0,1257.08,3320Zm-41.51,3.92a2.347,2.347,0,0,1,2.35-2.35h39.16a2.347,2.347,0,0,1,2.35,2.35v23.5h-43.86v-23.5Zm28.04,38.38h-2.19a0.785,0.785,0,1,0,0,1.57h6.86a0.783,0.783,0,0,1,.67,1.19,0.776,0.776,0,0,1-.67.37h-21.56a0.776,0.776,0,0,1-.67-0.37,0.783,0.783,0,0,1,.67-1.19h10a0.785,0.785,0,0,0,0-1.57h-5.33l1.28-7.05h9.66Zm15.82-10.97a2.347,2.347,0,0,1-2.35,2.35h-39.16a2.347,2.347,0,0,1-2.35-2.35v-2.35h43.86v2.35Zm-23.76-15.86h-6.78v-6.79a0.681,0.681,0,0,0-.68-0.68,8.145,8.145,0,1,0,8.14,8.14A0.672,0.672,0,0,0,1235.67,3335.47Zm-7.46,7.46a6.787,6.787,0,0,1-.68-13.54v6.75a0.681,0.681,0,0,0,.68.68h6.75A6.792,6.792,0,0,1,1228.21,3342.93Zm2.72-17.64a0.674,0.674,0,0,0-.68.68v7.46a0.674,0.674,0,0,0,.68.68h7.46a0.681,0.681,0,0,0,.68-0.68A8.154,8.154,0,0,0,1230.93,3325.29Zm0.67,7.46v-6.07a6.8,6.8,0,0,1,6.08,6.07h-6.08Zm25.48-9.62h-15.66a0.785,0.785,0,0,0-.79.79v21.15a0.783,0.783,0,0,0,.79.78h15.66a0.783,0.783,0,0,0,.79-0.78v-21.15A0.785,0.785,0,0,0,1257.08,3323.13Zm-0.78,21.15h-14.1V3324.7h14.1v19.58Zm-11.75-15.66h4.7a0.785,0.785,0,0,0,0-1.57h-4.7A0.785,0.785,0,0,0,1244.55,3328.62Zm0,3.13h9.4a0.785,0.785,0,0,0,0-1.57h-9.4A0.785,0.785,0,0,0,1244.55,3331.75Zm0,3.13h4.7a0.78,0.78,0,1,0,0-1.56h-4.7A0.78,0.78,0,1,0,1244.55,3334.88Zm0,3.14h9.4a0.785,0.785,0,0,0,0-1.57h-9.4A0.785,0.785,0,0,0,1244.55,3338.02Zm0,3.13h4.7a0.785,0.785,0,0,0,0-1.57h-4.7A0.785,0.785,0,0,0,1244.55,3341.15Z" transform="translate(-1214 -3320)"/>
</svg>
