<svg id="Группа_5" data-name="Группа 5" xmlns="http://www.w3.org/2000/svg" width="88.44" height="77.47" viewBox="0 0 88.44 77.47">
  <metadata><?xpacket begin="﻿" id="W5M0MpCehiHzreSzNTczkc9d"?>
<x:xmpmeta xmlns:x="adobe:ns:meta/" x:xmptk="Adobe XMP Core 5.6-c142 79.160924, 2017/07/13-01:06:39        ">
   <rdf:RDF xmlns:rdf="http://www.w3.org/1999/02/22-rdf-syntax-ns#">
      <rdf:Description rdf:about=""/>
   </rdf:RDF>
</x:xmpmeta>
                                                                                                    
                                                                                                    
                                                                                                    
                                                                                                    
                                                                                                    
                                                                                                    
                                                                                                    
                                                                                                    
                                                                                                    
                                                                                                    
                                                                                                    
                                                                                                    
                                                                                                    
                                                                                                    
                                                                                                    
                                                                                                    
                                                                                                    
                                                                                                    
                                                                                                    
                                                                                                    
                           
<?xpacket end="w"?></metadata>
<defs>
    <style>
      .cls-1 {
        fill: #d5d5d5;
      }

      .cls-1, .cls-2 {
        fill-rule: evenodd;
      }

      .cls-2 {
        fill: #ff083b;
      }
    </style>
  </defs>
  <path id="_01" data-name="01" class="cls-1" d="M1212.83,5157.87q-0.225-13.26-4.37-19.82-4.155-6.54-12.81-6.54-8.79,0-12.95,6.9-4.14,6.9-4.15,20.91v10.99q0.18,13.485,4.4,20.21t12.78,6.73q8.835,0,12.97-7.01t4.13-21.16v-11.21Zm-7.78,13.32q-0.09,9.84-2.33,14.63c-1.49,3.2-3.82,4.79-6.99,4.79q-4.785,0-7.11-5.07-2.34-5.085-2.33-15.19v-13.18q0.075-9.54,2.33-14.26,2.235-4.725,7.03-4.72,4.92,0,7.16,4.81t2.24,14.96v13.23Zm41.18-39.11H1245l-20.04,8.74v7.39l13.45-6.03v54.19h7.82v-64.29Z" transform="translate(-1178.56 -5131.5)"/>
  <path class="cls-2" d="M1242.65,5155a1.53,1.53,0,1,0,0,3.06,21.229,21.229,0,0,1,15.03,6.16,20.794,20.794,0,0,1,6.23,14.88,1.545,1.545,0,0,0,3.09,0,23.8,23.8,0,0,0-7.13-17.04A24.341,24.341,0,0,0,1242.65,5155Zm10.31,25.18a1.536,1.536,0,0,0,1.09.45h0a1.547,1.547,0,0,0,1.55-1.53,12.9,12.9,0,0,0-12.95-12.81,1.525,1.525,0,1,0,0,3.05,9.827,9.827,0,0,1,9.86,9.76h0A1.513,1.513,0,0,0,1252.96,5180.18Zm-38.18-11.44a9.46,9.46,0,0,0,.11,7.74,58.423,58.423,0,0,0,12.59,19.14l0.02,0.02a59.051,59.051,0,0,0,19.33,12.46,9.793,9.793,0,0,0,7.83.11,10.076,10.076,0,0,0,5.23-6.24,5.374,5.374,0,0,0-.02-3.73c-1.01-2.72-9.19-8.66-12.15-8.82-2.76-.14-4.19,1.93-4.88,2.92a1.532,1.532,0,0,0,.41,2.13,1.55,1.55,0,0,0,2.14-.4c0.88-1.26,1.38-1.64,2.16-1.6h0.02c1.83,0.21,8.67,5.18,9.4,6.81a2.427,2.427,0,0,1-.01,1.72,7.129,7.129,0,0,1-3.58,4.43,6.749,6.749,0,0,1-5.38-.16,55.927,55.927,0,0,1-18.33-11.81,55.244,55.244,0,0,1-11.92-18.13,6.569,6.569,0,0,1-.17-5.32,7.2,7.2,0,0,1,4.49-3.55,2.426,2.426,0,0,1,1.7-.01c1.68,0.72,6.7,7.48,6.91,9.28,0.04,0.81-.33,1.31-1.61,2.18a1.511,1.511,0,0,0-.41,2.12,1.558,1.558,0,0,0,2.15.4c1.08-.73,3.1-2.09,2.96-4.83-0.16-2.93-6.16-11.01-8.91-12.02a5.515,5.515,0,0,0-1.88-.33,6.09,6.09,0,0,0-1.9.31A10.134,10.134,0,0,0,1214.78,5168.74Z" transform="translate(-1178.56 -5131.5)"/>
</svg>
