<svg id="Группа_2" data-name="Группа 2" xmlns="http://www.w3.org/2000/svg" width="114.437" height="79.5" viewBox="0 0 114.437 79.5">
  <metadata><?xpacket begin="﻿" id="W5M0MpCehiHzreSzNTczkc9d"?>
<x:xmpmeta xmlns:x="adobe:ns:meta/" x:xmptk="Adobe XMP Core 5.6-c142 79.160924, 2017/07/13-01:06:39        ">
   <rdf:RDF xmlns:rdf="http://www.w3.org/1999/02/22-rdf-syntax-ns#">
      <rdf:Description rdf:about=""/>
   </rdf:RDF>
</x:xmpmeta>
                                                                                                    
                                                                                                    
                                                                                                    
                                                                                                    
                                                                                                    
                                                                                                    
                                                                                                    
                                                                                                    
                                                                                                    
                                                                                                    
                                                                                                    
                                                                                                    
                                                                                                    
                                                                                                    
                                                                                                    
                                                                                                    
                                                                                                    
                                                                                                    
                                                                                                    
                                                                                                    
                           
<?xpacket end="w"?></metadata>
<defs>
    <style>
      .cls-1 {
        fill: #d5d5d5;
      }

      .cls-1, .cls-2 {
        fill-rule: evenodd;
      }

      .cls-2 {
        fill: #ff083b;
      }
    </style>
  </defs>
  <path id="_04" data-name="04" class="cls-1" d="M967.829,5359.87q-0.22-13.26-4.372-19.82-4.154-6.54-12.811-6.54-8.788,0-12.941,6.9t-4.153,20.91v10.99q0.174,13.485,4.394,20.21t12.788,6.73q8.834,0,12.964-7.01t4.131-21.16v-11.21Zm-7.778,13.32q-0.089,9.84-2.329,14.63c-1.494,3.2-3.824,4.79-6.988,4.79q-4.789,0-7.119-5.07-2.33-5.085-2.329-15.19v-13.18q0.087-9.54,2.329-14.26t7.031-4.72q4.922,0,7.164,4.81t2.241,14.96v13.23Zm47.459-38.81h-8.172l-23.775,44.35v4.79h24.17v14.85h7.777v-14.85h7.12v-6.64h-7.12v-42.5Zm-7.777,12.09v30.41H984.177Z" transform="translate(-933.563 -5333.5)"/>
  <path class="cls-2" d="M995.536,5384.79h-0.15a1.41,1.41,0,0,0,0,2.82h0.15A1.41,1.41,0,0,0,995.536,5384.79ZM1048,5355.33a8.31,8.31,0,0,0-8.26-8.33h-27.67a8.376,8.376,0,0,0-8.39,8.33v12.69H984.364a8.384,8.384,0,0,0-8.364,8.39v20.47a8.348,8.348,0,0,0,8.364,8.31h25.606l8.03,7.42a1.378,1.378,0,0,0,1.5.28,1.382,1.382,0,0,0,.82-1.28V5390.2a1.4,1.4,0,1,0-2.8,0v18.22l-6.08-5.65a1.386,1.386,0,0,0-.93-0.4H984.364a5.532,5.532,0,0,1-5.565-5.49v-20.47a5.574,5.574,0,0,1,5.565-5.57h19.316v19.69a1.44,1.44,0,0,0,2.4,1.04l6.85-6.3c0.09-.07.17-0.15,0.25-0.22a9.305,9.305,0,0,1,.93-0.81l0.08-.06,0.09-.01c0.06,0,.21-0.02.9-0.01,0.32,0.01.69,0.01,1.15,0.01h23.41a8.325,8.325,0,0,0,8.26-8.37v-20.47Zm-2.8,20.47a5.512,5.512,0,0,1-5.46,5.55h-23.41c-0.44,0-.79,0-1.09-0.01-2.03-.04-2.36.15-3.96,1.64q-0.1.09-.24,0.21c-0.08.07-.17,0.14-0.25,0.21l-4.31,3.92v-31.99a5.557,5.557,0,0,1,5.59-5.51h27.67a5.428,5.428,0,0,1,5.46,5.51v20.47Zm-55.938,8.99h-0.15a1.41,1.41,0,0,0,0,2.82h0.15A1.41,1.41,0,0,0,989.262,5384.79Zm36.608-20.24h-0.15a1.41,1.41,0,0,0,0,2.82h0.15A1.41,1.41,0,0,0,1025.87,5364.55Zm5.88,0h-0.15a1.41,1.41,0,0,0,0,2.82h0.15A1.41,1.41,0,0,0,1031.75,5364.55Zm-12.16,0h-0.15a1.41,1.41,0,0,0,0,2.82h0.15A1.41,1.41,0,0,0,1019.59,5364.55Z" transform="translate(-933.563 -5333.5)"/>
</svg>
