<svg id="Группа_1" data-name="Группа 1" xmlns="http://www.w3.org/2000/svg" width="111.44" height="77.5" viewBox="0 0 111.44 77.5">
  <metadata><?xpacket begin="﻿" id="W5M0MpCehiHzreSzNTczkc9d"?>
<x:xmpmeta xmlns:x="adobe:ns:meta/" x:xmptk="Adobe XMP Core 5.6-c142 79.160924, 2017/07/13-01:06:39        ">
   <rdf:RDF xmlns:rdf="http://www.w3.org/1999/02/22-rdf-syntax-ns#">
      <rdf:Description rdf:about=""/>
   </rdf:RDF>
</x:xmpmeta>
                                                                                                    
                                                                                                    
                                                                                                    
                                                                                                    
                                                                                                    
                                                                                                    
                                                                                                    
                                                                                                    
                                                                                                    
                                                                                                    
                                                                                                    
                                                                                                    
                                                                                                    
                                                                                                    
                                                                                                    
                                                                                                    
                                                                                                    
                                                                                                    
                                                                                                    
                                                                                                    
                           
<?xpacket end="w"?></metadata>
<defs>
    <style>
      .cls-1 {
        fill: #dfdfdf;
      }

      .cls-1, .cls-2 {
        fill-rule: evenodd;
      }

      .cls-2 {
        fill: #ff083b;
      }
    </style>
  </defs>
  <path id="_05" data-name="05" class="cls-1" d="M1204.83,5359.87q-0.225-13.26-4.37-19.82-4.155-6.54-12.81-6.54-8.79,0-12.95,6.9-4.14,6.9-4.15,20.91v10.99q0.18,13.485,4.4,20.21t12.78,6.73q8.835,0,12.97-7.01t4.13-21.16v-11.21Zm-7.78,13.32q-0.09,9.84-2.33,14.63c-1.49,3.2-3.82,4.79-6.99,4.79q-4.785,0-7.11-5.07-2.34-5.085-2.33-15.19v-13.18q0.075-9.54,2.33-14.26,2.235-4.725,7.03-4.72,4.92,0,7.16,4.81t2.24,14.96v13.23Zm27.38-5.23,2.06-2.07a9.178,9.178,0,0,1,6.2-2.02,8.587,8.587,0,0,1,7.41,3.96q2.745,3.945,2.74,10.24,0,6.675-2.55,10.61a8,8,0,0,1-7.07,3.93,8.249,8.249,0,0,1-6.48-2.79q-2.49-2.79-3.15-8.28h-7.29q0.66,8.31,5.18,13.01a15.585,15.585,0,0,0,11.74,4.7q8.085,0,12.72-5.67t4.64-15.6q0-9.8-4.27-15.6a13.747,13.747,0,0,0-11.73-5.8,14.565,14.565,0,0,0-8.53,2.77l1.5-17.45h21.27v-7.52H1221l-2.77,31.91Z" transform="translate(-1170.56 -5333.5)"/>
  <path class="cls-2" d="M1279.32,5375.8h-3.72v-6.69a2.913,2.913,0,0,0-2.91-2.91h-1.36V5347h-42.66v2.13h-3.2v2.13h-3.2v7.47h-1.35a2.921,2.921,0,0,0-2.92,2.91v46.6h0.01a2.706,2.706,0,0,0,2.72,2.76h47.75a2.7,2.7,0,0,0,2.61-1.93l10.91-29.91v-0.19c0-1.83-1.13-3.17-2.68-3.17h0Zm-6.63-7.47a0.788,0.788,0,0,1,.78.78v6.69h-2.14v-7.47h1.36Zm-3.49-19.2v26.67h-37.62a2.462,2.462,0,0,0-.72.11h-0.06v-26.78h38.4Zm-40.53,2.13v27.3l-0.07.18-1,2.74v-30.22h1.07Zm-4.27,2.14h1.07v33.93l-1.07,2.92V5353.4Zm-4.26,8.24a0.781,0.781,0,0,1,.78-0.78h1.35V5396l-2.13,5.82v-40.18Zm48.92,46.78a0.6,0.6,0,0,1-.58.44h-47.75a0.61,0.61,0,0,1-.6-0.67l2.14-5.86,3.2-8.77,3.2-8.78v0.01l2.06-5.66,0.07-.2,0.17-.47,0.03-.08a0.6,0.6,0,0,1,.58-0.45h47.74a0.836,0.836,0,0,1,.54.88Zm0,0-31.86-43.28h25.6a1.07,1.07,0,0,0,0-2.14h-25.6a1.07,1.07,0,0,0,0,2.14h0Zm0,0,0-7.47h10.66a1.07,1.07,0,1,0,0-2.14H1237.2a1.07,1.07,0,0,0,0,2.14h0Zm0,0,0,14.93h25.6a1.065,1.065,0,0,0,0-2.13h-25.6a1.065,1.065,0,0,0,0,2.13h0Zm0,0" transform="translate(-1170.56 -5333.5)"/>
</svg>
