<svg xmlns="http://www.w3.org/2000/svg" width="251" height="70" viewBox="0 0 251 70">
  <metadata><?xpacket begin="﻿" id="W5M0MpCehiHzreSzNTczkc9d"?>
<x:xmpmeta xmlns:x="adobe:ns:meta/" x:xmptk="Adobe XMP Core 5.6-c142 79.160924, 2017/07/13-01:06:39        ">
   <rdf:RDF xmlns:rdf="http://www.w3.org/1999/02/22-rdf-syntax-ns#">
      <rdf:Description rdf:about=""/>
   </rdf:RDF>
</x:xmpmeta>
                                                                                                    
                                                                                                    
                                                                                                    
                                                                                                    
                                                                                                    
                                                                                                    
                                                                                                    
                                                                                                    
                                                                                                    
                                                                                                    
                                                                                                    
                                                                                                    
                                                                                                    
                                                                                                    
                                                                                                    
                                                                                                    
                                                                                                    
                                                                                                    
                                                                                                    
                                                                                                    
                           
<?xpacket end="w"?></metadata>
<defs>
    <style>
      .cls-1 {
        fill: #fff;
        fill-rule: evenodd;
      }
    </style>
  </defs>
  <path id="Logo" class="cls-1" d="M409.125,55a35,35,0,1,0,35.126,35A35.062,35.062,0,0,0,409.125,55Zm0,63.86a29.246,29.246,0,0,1-3.95-.269v-7.218H416.16a15.378,15.378,0,0,0,15.4-15.35h0a15.24,15.24,0,0,0-2.631-8.582q-0.415-.612-0.887-1.182t-0.994-1.09a15.435,15.435,0,0,0-3.55-2.643c-0.436-.237-0.886-0.452-1.346-0.646q-0.346-.146-0.7-0.275a15.415,15.415,0,0,0-5.3-.931h-14.1a3.034,3.034,0,1,0,0,6.067h14.192a9.273,9.273,0,0,1,6.921,3.087c0.2,0.223.389,0.455,0.566,0.7a9.168,9.168,0,0,1,1.629,3.729,9.356,9.356,0,0,1,.162,1.891,9.079,9.079,0,0,1-.333,2.288c-0.041.146-.085,0.291-0.133,0.434-0.1.285-.206,0.565-0.328,0.837s-0.259.538-.406,0.8a9.5,9.5,0,0,1-8.231,4.734H402.057a3.039,3.039,0,0,0-3.044,3.033V108.3h0v8.748A28.993,28.993,0,1,1,409.125,118.86ZM467.4,100.783c-1.042-.469-3.4-0.7-7.221-0.7-3.154,0-4.441-.289-4.965-0.533a1.688,1.688,0,0,1-.951-1.734c0-.682.212-1.491,1.862-1.688,0.487-.059,1.851-0.09,4.054-0.09,3.125,0,4.288.26,4.714,0.478,0.5,0.259.76,0.974,0.76,2.124V99.17h3.385V98.643c0-2.171-.5-3.612-1.534-4.407-1.224-.931-3.619-1.383-7.325-1.383-3.681,0-6.073.286-7.312,0.874-1.351.641-2.035,2.022-2.035,4.1,0,1.906.562,3.261,1.667,4.024,1.361,0.954,3.873,1.418,7.68,1.418s4.931,0.223,5.255.355c0.158,0.064.638,0.26,0.638,1.529a1.331,1.331,0,0,1-.926,1.515,21.647,21.647,0,0,1-5.479.392c-3.745,0-4.854-.313-5.182-0.5-0.48-.272-0.734-1.088-0.734-2.358V103.68h-3.431v0.528c0,2.374.487,3.9,1.487,4.66,1.223,0.931,3.787,1.384,7.837,1.384,3.7,0,6.117-.256,7.371-0.782,1.651-.691,2.488-2.141,2.488-4.312C469.507,102.887,468.8,101.415,467.4,100.783Zm24.719-4.451a4.138,4.138,0,0,0-2.867-2.793,37.9,37.9,0,0,0-14.183.012,4.108,4.108,0,0,0-2.879,2.807,22.473,22.473,0,0,0-.371,5.228,21.732,21.732,0,0,0,.394,5.229,4.075,4.075,0,0,0,2.857,2.773,38.439,38.439,0,0,0,14.217,0,4.074,4.074,0,0,0,2.856-2.8,22.307,22.307,0,0,0,.371-5.206A21.87,21.87,0,0,0,492.123,96.332ZM488.3,106.375c-0.25.207-1.346,0.69-6.129,0.69s-5.878-.49-6.127-0.7-0.79-1.069-.79-4.789c0-3.763.544-4.627,0.779-4.823s1.336-.689,6.138-0.689,5.892,0.482,6.138.689,0.778,1.06.778,4.823C489.087,105.316,488.537,106.177,488.3,106.375Zm9.523-13.29h-3.431V110.02h15.623v-3.187H497.823V93.085Zm29.1,11.79c0,1-.236,1.607-0.7,1.8-0.422.178-1.69,0.389-5.332,0.389-3.606,0-4.872-.212-5.3-0.389-0.471-.2-0.709-0.8-0.709-1.8V93.085h-3.432v11.788c0,2.407.536,3.886,1.638,4.519,0.641,0.369,2.149.86,7.8,0.86,4.26,0,6.843-.3,7.894-0.905s1.569-2.066,1.569-4.474V93.085h-3.431v11.79Zm5.746-8.6h7.144V110.02h3.431V96.272h7.12V93.085h-17.7v3.187Zm20.057,13.748h3.431V93.085h-3.431V110.02Zm26.605-13.688a4.138,4.138,0,0,0-2.867-2.793,37.9,37.9,0,0,0-14.183.012,4.108,4.108,0,0,0-2.879,2.807,22.473,22.473,0,0,0-.371,5.228,21.732,21.732,0,0,0,.394,5.229,4.073,4.073,0,0,0,2.857,2.773,38.439,38.439,0,0,0,14.217,0,4.074,4.074,0,0,0,2.856-2.8,22.307,22.307,0,0,0,.371-5.206A21.87,21.87,0,0,0,579.327,96.332ZM575.5,106.375c-0.25.207-1.346,0.69-6.129,0.69s-5.878-.49-6.127-0.7-0.79-1.069-.79-4.789c0-3.763.544-4.627,0.778-4.823s1.337-.689,6.139-0.689,5.892,0.482,6.138.689,0.778,1.06.778,4.823C576.291,105.316,575.74,106.177,575.5,106.375Zm23.7-.145L586.3,93.085h-4.218V110.02h3.431V96.992l12.79,13.028h4.335V93.085h-3.432V106.23Zm23.688-5.447c-1.042-.469-3.4-0.7-7.221-0.7-3.155,0-4.442-.289-4.965-0.533a1.688,1.688,0,0,1-.951-1.734c0-.682.211-1.491,1.862-1.688,0.487-.059,1.851-0.09,4.054-0.09,3.124,0,4.288.26,4.713,0.478,0.5,0.259.761,0.974,0.761,2.124V99.17h3.385V98.643c0-2.171-.5-3.612-1.535-4.407-1.223-.931-3.619-1.383-7.324-1.383-3.681,0-6.073.286-7.313,0.874-1.35.641-2.035,2.022-2.035,4.1,0,1.906.562,3.261,1.668,4.024,1.36,0.954,3.872,1.418,7.68,1.418s4.931,0.223,5.255.355c0.158,0.064.637,0.26,0.637,1.529a1.331,1.331,0,0,1-.925,1.515,21.647,21.647,0,0,1-5.479.392c-3.746,0-4.855-.313-5.183-0.5-0.48-.272-0.733-1.088-0.733-2.358V103.68h-3.431v0.528c0,2.374.486,3.9,1.487,4.66,1.223,0.931,3.786,1.384,7.837,1.384,3.705,0,6.116-.256,7.37-0.782,1.652-.691,2.489-2.141,2.489-4.312C625,102.887,624.293,101.415,622.9,100.783Z" transform="translate(-374 -55)"/>
</svg>
