<svg xmlns="http://www.w3.org/2000/svg" width="71" height="64" viewBox="0 0 71 64">
  <metadata><?xpacket begin="﻿" id="W5M0MpCehiHzreSzNTczkc9d"?>
<x:xmpmeta xmlns:x="adobe:ns:meta/" x:xmptk="Adobe XMP Core 5.6-c142 79.160924, 2017/07/13-01:06:39        ">
   <rdf:RDF xmlns:rdf="http://www.w3.org/1999/02/22-rdf-syntax-ns#">
      <rdf:Description rdf:about=""/>
   </rdf:RDF>
</x:xmpmeta>
                                                                                                    
                                                                                                    
                                                                                                    
                                                                                                    
                                                                                                    
                                                                                                    
                                                                                                    
                                                                                                    
                                                                                                    
                                                                                                    
                                                                                                    
                                                                                                    
                                                                                                    
                                                                                                    
                                                                                                    
                                                                                                    
                                                                                                    
                                                                                                    
                                                                                                    
                                                                                                    
                           
<?xpacket end="w"?></metadata>
<defs>
    <style>
      .cls-1 {
        fill: #fd0838;
        fill-rule: evenodd;
      }
    </style>
  </defs>
  <path class="cls-1" d="M516.265,2651.64h-0.148a1.37,1.37,0,1,0,0,2.74h0.148A1.37,1.37,0,1,0,516.265,2651.64ZM568,2623.08a8.12,8.12,0,0,0-8.147-8.08h-27.28a8.186,8.186,0,0,0-8.277,8.08v12.3H505.248a8.2,8.2,0,0,0-8.248,8.14v19.85a8.159,8.159,0,0,0,8.248,8.05H530.5l7.919,7.2a1.415,1.415,0,0,0,.93.38,1.208,1.208,0,0,0,.543-0.11,1.332,1.332,0,0,0,.811-1.24v-20.76a1.38,1.38,0,0,0-2.759,0v17.67l-5.993-5.48a1.413,1.413,0,0,0-.917-0.39H505.248a5.408,5.408,0,0,1-5.488-5.32v-19.85a5.458,5.458,0,0,1,5.488-5.41H524.3v19.1a1.424,1.424,0,0,0,2.365,1.01l6.76-6.11c0.084-.07.164-0.14,0.238-0.21a9.853,9.853,0,0,1,.917-0.79l0.08-.05,0.1-.01a5.13,5.13,0,0,1,.89-0.01c0.308,0,.677.01,1.125,0.01h23.087a8.148,8.148,0,0,0,8.147-8.12v-19.85Zm-2.76,19.85a5.388,5.388,0,0,1-5.387,5.38H536.766c-0.425,0-.775,0-1.068-0.01-2.006-.04-2.325.14-3.9,1.59-0.071.06-.155,0.13-0.243,0.2s-0.166.14-.245,0.21l-4.25,3.8v-31.02a5.442,5.442,0,0,1,5.517-5.35h27.28a5.311,5.311,0,0,1,5.387,5.35v19.85Zm-55.162,8.71H509.93a1.37,1.37,0,1,0,0,2.74h0.148A1.37,1.37,0,1,0,510.078,2651.64Zm36.1-19.62h-0.148a1.37,1.37,0,1,0,0,2.74h0.148A1.37,1.37,0,1,0,546.175,2632.02Zm5.8,0h-0.148a1.37,1.37,0,1,0,0,2.74h0.148A1.37,1.37,0,1,0,551.977,2632.02Zm-11.989,0H539.84a1.37,1.37,0,1,0,0,2.74h0.148A1.37,1.37,0,1,0,539.988,2632.02Z" transform="translate(-497 -2615)"/>
</svg>
