<svg xmlns="http://www.w3.org/2000/svg" width="49" height="49" viewBox="0 0 49 49">
  <metadata><?xpacket begin="﻿" id="W5M0MpCehiHzreSzNTczkc9d"?>
<x:xmpmeta xmlns:x="adobe:ns:meta/" x:xmptk="Adobe XMP Core 5.6-c142 79.160924, 2017/07/13-01:06:39        ">
   <rdf:RDF xmlns:rdf="http://www.w3.org/1999/02/22-rdf-syntax-ns#">
      <rdf:Description rdf:about=""/>
   </rdf:RDF>
</x:xmpmeta>
                                                                                                    
                                                                                                    
                                                                                                    
                                                                                                    
                                                                                                    
                                                                                                    
                                                                                                    
                                                                                                    
                                                                                                    
                                                                                                    
                                                                                                    
                                                                                                    
                                                                                                    
                                                                                                    
                                                                                                    
                                                                                                    
                                                                                                    
                                                                                                    
                                                                                                    
                                                                                                    
                           
<?xpacket end="w"?></metadata>
<defs>
    <style>
      .cls-1 {
        fill: #fd0838;
        fill-rule: evenodd;
      }
    </style>
  </defs>
  <path class="cls-1" d="M1005.92,2668.85c0.02-.08.04-0.16,0.06-0.25l0.02-.08v-0.9a5.607,5.607,0,0,0-1.89-3.07c-3.01-3-6.061-6.06-9.013-9.02-1.653-1.65-3.306-3.31-4.96-4.96a1.646,1.646,0,0,0-.258-0.19,1.131,1.131,0,0,1-.161-0.1l-0.264-.18,0.165-.27a17.639,17.639,0,0,0-8.01-25.38,16.252,16.252,0,0,0-5.535-1.37,2.06,2.06,0,0,1-.365-0.06c-0.038-.01-0.075-0.01-0.112-0.02h-1.886c-0.144.02-.289,0.04-0.434,0.05-0.319.04-.648,0.08-0.967,0.13-6.613,1.04-11.253,4.59-13.792,10.57-2.566,6.03-1.883,11.85,2.029,17.29a16.787,16.787,0,0,0,10.854,6.85,17.121,17.121,0,0,0,12-2.03l0.051-.02a3.473,3.473,0,0,0,.374-0.25l0.286-.21,0.2,0.3c0.038,0.06.073,0.12,0.107,0.18a1.26,1.26,0,0,0,.175.25q4.671,4.695,9.347,9.37c1.712,1.72,3.423,3.43,5.135,5.15a3.892,3.892,0,0,0,4.109,1.19A3.811,3.811,0,0,0,1005.92,2668.85Zm-31.227-12.88h-0.054a15.205,15.205,0,0,1-10.8-4.44,15.441,15.441,0,0,1-4.53-10.88,15.112,15.112,0,0,1,4.392-10.79,15.323,15.323,0,0,1,10.905-4.62,15.072,15.072,0,0,1,10.835,4.45A15.346,15.346,0,0,1,974.693,2655.97Zm29.007,12.58a1.678,1.678,0,0,1-1.08,1.12,1.7,1.7,0,0,1-.56.1,1.964,1.964,0,0,1-1.38-.69q-4.986-4.995-9.967-9.99l-4.306-4.31c-0.08-.08-0.155-0.17-0.205-0.22l-0.25-.28,2.351-2.36,0.264,0.24c0.039,0.03.1,0.09,0.153,0.14q7.2,7.215,14.41,14.44a3.321,3.321,0,0,1,.25.27A1.7,1.7,0,0,1,1003.7,2668.55Zm-17.677-28.68a1.118,1.118,0,0,0,.27-0.87,11.761,11.761,0,0,0-10.033-10.05,0.713,0.713,0,0,0-.145-0.01,1.1,1.1,0,0,0-1.106,1.11,1.114,1.114,0,0,0,.963,1.1,9.581,9.581,0,0,1,8.115,8.13A1.117,1.117,0,0,0,986.023,2639.87Z" transform="translate(-957 -2623)"/>
</svg>
