<svg xmlns="http://www.w3.org/2000/svg" width="67" height="65" viewBox="0 0 67 65">
  <metadata><?xpacket begin="﻿" id="W5M0MpCehiHzreSzNTczkc9d"?>
<x:xmpmeta xmlns:x="adobe:ns:meta/" x:xmptk="Adobe XMP Core 5.6-c142 79.160924, 2017/07/13-01:06:39        ">
   <rdf:RDF xmlns:rdf="http://www.w3.org/1999/02/22-rdf-syntax-ns#">
      <rdf:Description rdf:about=""/>
   </rdf:RDF>
</x:xmpmeta>
                                                                                                    
                                                                                                    
                                                                                                    
                                                                                                    
                                                                                                    
                                                                                                    
                                                                                                    
                                                                                                    
                                                                                                    
                                                                                                    
                                                                                                    
                                                                                                    
                                                                                                    
                                                                                                    
                                                                                                    
                                                                                                    
                                                                                                    
                                                                                                    
                                                                                                    
                                                                                                    
                           
<?xpacket end="w"?></metadata>
<defs>
    <style>
      .cls-1 {
        fill: #fd0838;
        fill-rule: evenodd;
      }
    </style>
  </defs>
  <path class="cls-1" d="M1269.93,2665.26l14.04-5.22a0.959,0.959,0,1,0-.66-1.8l-14.04,5.22a0.981,0.981,0,0,0-.54.5,0.97,0.97,0,0,0-.02.73,0.938,0.938,0,0,0,.89.63A0.96,0.96,0,0,0,1269.93,2665.26Zm-3.3.2a0.964,0.964,0,0,0-.49-0.54,1.021,1.021,0,0,0-.73-0.03l-0.6.23a0.885,0.885,0,0,0-.53.49,0.952,0.952,0,0,0-.03.74,0.971,0.971,0,0,0,.89.63,0.881,0.881,0,0,0,.33-0.06l0.6-.22A0.974,0.974,0,0,0,1266.63,2665.46Zm6.25-6.83,11.09-4.13a0.947,0.947,0,0,0,.54-0.5,0.926,0.926,0,0,0,.03-0.73,0.956,0.956,0,0,0-1.23-.57h0l-11.09,4.13a0.93,0.93,0,0,0-.54.49,0.952,0.952,0,0,0-.03.74,0.974,0.974,0,0,0,.9.63A0.96,0.96,0,0,0,1272.88,2658.63Zm0-5.49,11.09-4.12a0.981,0.981,0,0,0,.54-0.5,0.926,0.926,0,0,0,.03-0.73,0.956,0.956,0,0,0-1.23-.57h0l-11.09,4.12A0.959,0.959,0,1,0,1272.88,2653.14Zm17.12,9.81v-38.9a0.955,0.955,0,0,0-.62-0.9l-32.55-12.09a0.938,0.938,0,0,0-.66,0l-32.38,12.03-0.17.06a0.7,0.7,0,0,0-.21.11,0.95,0.95,0,0,0-.41.79v38.9a0.965,0.965,0,0,0,.62.9l32.55,12.09a0.937,0.937,0,0,0,.66,0l0.29-.11h0l32.26-11.98A0.965,0.965,0,0,0,1290,2662.95Zm-34.45,10.71-30.64-11.38v-36.86l6.87,2.56v16.75a0.965,0.965,0,0,0,.62.9l14.59,5.42a0.962,0.962,0,0,0,1.28-.9V2634.1l7.28,2.71v36.85Zm-9.19-40.27v15.38l-12.68-4.71v-15.38Zm-10.88-6.09,11.84-4.4,11.83,4.4-11.83,4.39Zm21.02,7.81-6.44-2.39,12.17-4.52a0.974,0.974,0,0,0,.63-0.9,0.964,0.964,0,0,0-.63-0.9l-14.58-5.42a0.937,0.937,0,0,0-.66,0l-14.27,5.3-6.01-2.23,29.79-11.07,0.14,0.05,29.65,11.02Zm31.59,27.17-30.64,11.38v-36.85l30.64-11.39v36.86Z" transform="translate(-1223 -2611)"/>
</svg>
