<svg xmlns="http://www.w3.org/2000/svg" width="68" height="57" viewBox="0 0 68 57">
  <metadata><?xpacket begin="﻿" id="W5M0MpCehiHzreSzNTczkc9d"?>
<x:xmpmeta xmlns:x="adobe:ns:meta/" x:xmptk="Adobe XMP Core 5.6-c142 79.160924, 2017/07/13-01:06:39        ">
   <rdf:RDF xmlns:rdf="http://www.w3.org/1999/02/22-rdf-syntax-ns#">
      <rdf:Description rdf:about=""/>
   </rdf:RDF>
</x:xmpmeta>
                                                                                                    
                                                                                                    
                                                                                                    
                                                                                                    
                                                                                                    
                                                                                                    
                                                                                                    
                                                                                                    
                                                                                                    
                                                                                                    
                                                                                                    
                                                                                                    
                                                                                                    
                                                                                                    
                                                                                                    
                                                                                                    
                                                                                                    
                                                                                                    
                                                                                                    
                                                                                                    
                           
<?xpacket end="w"?></metadata>
<defs>
    <style>
      .cls-1 {
        fill: #fd0838;
        fill-rule: evenodd;
      }
    </style>
  </defs>
  <path class="cls-1" d="M760.833,2848.77l-0.425.16a0.965,0.965,0,0,0,.334,1.87,0.978,0.978,0,0,0,.334-0.06l0.424-.16a0.965,0.965,0,0,0,.571-1.24A0.975,0.975,0,0,0,760.833,2848.77Zm12.781-4.7-10.025,3.69a0.965,0.965,0,0,0,.667,1.81l10.025-3.7A0.96,0.96,0,1,0,773.614,2844.07Zm0-3.93-7.923,2.92a0.965,0.965,0,0,0,.334,1.87,0.978,0.978,0,0,0,.334-0.06l7.922-2.92A0.964,0.964,0,1,0,773.614,2840.14Zm0-3.88-7.923,2.92a0.965,0.965,0,0,0,.334,1.87,0.978,0.978,0,0,0,.334-0.06l7.922-2.92A0.964,0.964,0,1,0,773.614,2836.26Zm4.89-14.23-23.229-8.55a0.96,0.96,0,0,0-.668,0l-23.23,8.55v0.01a0.655,0.655,0,0,0-.217.11,0.955,0.955,0,0,0-.413.79v27.54a0.963,0.963,0,0,0,.63.9l23.23,8.56a0.965,0.965,0,0,0,.334.06,0.952,0.952,0,0,0,.333-0.06h0l23.229-8.56a0.962,0.962,0,0,0,.63-0.9v-27.54A0.975,0.975,0,0,0,778.5,2822.03Zm-39.564,4.6,8.482,3.12v10.29l-8.482-3.13v-10.28Zm9.446,1.42-7.625-2.81-2.795-1.02-3.47-1.28,20.445-7.54,20.445,7.54-20.445,7.53-3.781-1.39Zm-15.711-3.73,4.337,1.6v11.66a0.962,0.962,0,0,0,.631.9l10.41,3.84a0.96,0.96,0,0,0,.333.06,1,1,0,0,0,.552-0.17,0.97,0.97,0,0,0,.412-0.79v-10.96l4.627,1.71v25.49l-21.3-7.85v-25.49Zm23.23,33.34v-25.49l21.3-7.85v25.49Zm-23.231-33.67a1,1,0,0,1-.783-0.38l-8.667-10.66a1,1,0,0,1,.448-1.58l23.634-8.31a1,1,0,0,1,1.147.35l6.966,9.47a1.007,1.007,0,1,1-1.624,1.19l-6.525-8.87-21.579,7.59,7.765,9.55A1.015,1.015,0,0,1,732.674,2823.99Zm22.266,8.34a1.007,1.007,0,0,1-.082-2.01l12.273-1.01,15.187-5.86-4.654.53a1.006,1.006,0,1,1-.227-2l12.439-1.41a1.013,1.013,0,0,1,1.092.76,1,1,0,0,1-.615,1.18l-22.631,8.73a0.914,0.914,0,0,1-.28.07l-12.418,1.02H754.94Z" transform="translate(-723 -2803)"/>
</svg>
