<svg xmlns="http://www.w3.org/2000/svg" width="65" height="49" viewBox="0 0 65 49">
  <metadata><?xpacket begin="﻿" id="W5M0MpCehiHzreSzNTczkc9d"?>
<x:xmpmeta xmlns:x="adobe:ns:meta/" x:xmptk="Adobe XMP Core 5.6-c142 79.160924, 2017/07/13-01:06:39        ">
   <rdf:RDF xmlns:rdf="http://www.w3.org/1999/02/22-rdf-syntax-ns#">
      <rdf:Description rdf:about=""/>
   </rdf:RDF>
</x:xmpmeta>
                                                                                                    
                                                                                                    
                                                                                                    
                                                                                                    
                                                                                                    
                                                                                                    
                                                                                                    
                                                                                                    
                                                                                                    
                                                                                                    
                                                                                                    
                                                                                                    
                                                                                                    
                                                                                                    
                                                                                                    
                                                                                                    
                                                                                                    
                                                                                                    
                                                                                                    
                                                                                                    
                           
<?xpacket end="w"?></metadata>
<defs>
    <style>
      .cls-1 {
        fill: #fd0838;
        fill-rule: evenodd;
      }
    </style>
  </defs>
  <path class="cls-1" d="M1005.96,2851.58H961.778a0.985,0.985,0,1,0,0,1.97h44.182A0.985,0.985,0,0,0,1005.96,2851.58Zm-15.561,6.45H968.823a0.985,0.985,0,1,0,0,1.97H990.4A0.985,0.985,0,1,0,990.4,2858.03Zm-32.325-31.19a1,1,0,0,0,.915.62,0.968,0.968,0,0,0,.372-0.08l8.659-3.52a0.981,0.981,0,0,0,.543-1.28,1,1,0,0,0-.916-0.62,0.983,0.983,0,0,0-.371.08l-8.659,3.52A0.981,0.981,0,0,0,958.074,2826.84Zm62-5.63a5.107,5.107,0,0,0,2.54-2.43,4.128,4.128,0,0,0-.03-3.55l-0.37-.79a5.73,5.73,0,0,0-3.35-3.01c-2.59-.92-6.13-0.37-10.23,1.61l-0.05.03-16.273,8.96-15.757-8.49a0.99,0.99,0,0,0-.887-0.03l-6.916,3.22a1,1,0,0,0-.564.79,0.989,0.989,0,0,0,.383.89l12.739,9.67-11.177,6.16-5.67-3.06a1.087,1.087,0,0,0-.469-0.11,1,1,0,0,0-.416.09l-4.719,2.2a0.979,0.979,0,0,0-.18,1.67l10.042,7.63a4.973,4.973,0,0,0,3.034,1.02,5.039,5.039,0,0,0,2.123-.47l5.156-2.4Zm-49.008-3.38,4.987-2.32,19.253,10.37-4.459,2.08-4.7-3.46a0.989,0.989,0,0,0-1.38.21,1,1,0,0,0-.18.74,0.949,0.949,0,0,0,.391.64l3.833,2.82-1.955.91Zm1.978,23.59a2.937,2.937,0,0,1-1.288.29,3.047,3.047,0,0,1-1.842-.62l-8.739-6.64,2.787-1.3,5.707,3.08a0.99,0.99,0,0,0,.945,0l12.414-6.84,3.1,2.36a1.026,1.026,0,0,0,1.014.11l10.775-5.02a0.984,0.984,0,0,0,.57-0.87,0.968,0.968,0,0,0-.518-0.89l-3.594-1.94,15.145-8.34c3.37-1.62,6.36-2.19,8.4-1.6l0.78,0.23-5.55,2.78a0.973,0.973,0,0,0-.44,1.32,0.954,0.954,0,0,0,.88.54,0.976,0.976,0,0,0,.44-0.1l6.18-3.09,0.16,0.31c0.02,0.03.03,0.05,0.05,0.08l0.37,0.8c0.46,0.99.33,2.47-1.57,3.36l-41.034,19.6Z" transform="translate(-958 -2811)"/>
</svg>
