<svg xmlns="http://www.w3.org/2000/svg" width="59" height="54" viewBox="0 0 59 54">
  <metadata><?xpacket begin="﻿" id="W5M0MpCehiHzreSzNTczkc9d"?>
<x:xmpmeta xmlns:x="adobe:ns:meta/" x:xmptk="Adobe XMP Core 5.6-c142 79.160924, 2017/07/13-01:06:39        ">
   <rdf:RDF xmlns:rdf="http://www.w3.org/1999/02/22-rdf-syntax-ns#">
      <rdf:Description rdf:about=""/>
   </rdf:RDF>
</x:xmpmeta>
                                                                                                    
                                                                                                    
                                                                                                    
                                                                                                    
                                                                                                    
                                                                                                    
                                                                                                    
                                                                                                    
                                                                                                    
                                                                                                    
                                                                                                    
                                                                                                    
                                                                                                    
                                                                                                    
                                                                                                    
                                                                                                    
                                                                                                    
                                                                                                    
                                                                                                    
                                                                                                    
                           
<?xpacket end="w"?></metadata>
<defs>
    <style>
      .cls-1 {
        fill: #fd0838;
        fill-rule: evenodd;
      }
    </style>
  </defs>
  <path class="cls-1" d="M1257.24,2811.2c-3.36,0-6.36,2.25-6.69,5.01a4.3,4.3,0,0,0,1.1,3.39,6.145,6.145,0,0,0,4.61,1.86c3.45,0,6.41-2.2,6.74-5.01a4.176,4.176,0,0,0-1.1-3.35A6.192,6.192,0,0,0,1257.24,2811.2Zm3.69,5.01c-0.2,1.73-2.34,3.18-4.67,3.18a4.154,4.154,0,0,1-3.06-1.16,2.261,2.261,0,0,1-.58-1.78c0.21-1.73,2.32-3.19,4.62-3.19a4.184,4.184,0,0,1,3.11,1.21A2.148,2.148,0,0,1,1260.93,2816.21Zm-6.21,32.61c2.86,0,5.69-1.75,6.53-3.38a1.339,1.339,0,0,0,.03-1.39,1.862,1.862,0,0,0-.66-0.63c-0.69-.46-1.32-1.42-0.69-5.05,0.02-.08.08-0.34,0.17-0.75l0.07-.32c0.24-1.14.67-3.1,1.13-5.27a7.2,7.2,0,0,0-1.06-5.96,6.4,6.4,0,0,0-4.71-2.37,4.886,4.886,0,0,0-.54-0.03c-2.77,0-5.55,1.62-6.43,3.21a1.381,1.381,0,0,0-.07,1.4,2.046,2.046,0,0,0,.64.64c0.69,0.48,1.29,1.46.55,5.08-0.07.37-1.17,5.87-1.31,6.63a7.1,7.1,0,0,0,1.22,5.92,6.737,6.737,0,0,0,5.11,2.27h0.02Zm-0.24-2.07a4.286,4.286,0,0,1-3.26-1.48,5.249,5.249,0,0,1-.79-4.28h0c0.16-.86,1.25-6.34,1.3-6.57,0.88-4.36-.01-5.89-0.77-6.66l-0.29-.3,0.32-.26a6.184,6.184,0,0,1,1.26-.8,6.414,6.414,0,0,1,3.11-.65,4.324,4.324,0,0,1,3.22,1.56,5.263,5.263,0,0,1,.68,4.3c-0.47,2.23-.91,4.23-1.15,5.34l-0.02.09c-0.16.74-.19,0.89-0.21,0.96-0.77,4.38.17,5.88,0.94,6.63l0.3,0.29-0.31.27a6.089,6.089,0,0,1-1.24.83,6.576,6.576,0,0,1-2.86.74A1.7,1.7,0,0,1,1254.48,2846.75Zm26.88,9.97a1.009,1.009,0,0,0,.29-1.04l-2.81-9.73,0.13-.16a24.758,24.758,0,0,0-2.65-35.02,31.779,31.779,0,0,0-41.64,0,24.873,24.873,0,0,0,0,37.76,30.967,30.967,0,0,0,20.82,7.77,32.122,32.122,0,0,0,14.05-3.21l0.16-.08,10.57,3.92A1.088,1.088,0,0,0,1281.36,2856.72Zm-11.35-5.8a1.09,1.09,0,0,0-.85.05,29.843,29.843,0,0,1-13.66,3.27c-15.12,0-27.42-11.03-27.42-24.59s12.3-24.59,27.42-24.59,27.41,11.03,27.41,24.59a22.8,22.8,0,0,1-6.01,15.36,1.015,1.015,0,0,0-.22.97l2.4,8.3Z" transform="translate(-1226 -2803)"/>
</svg>
